<?xml version="1.0" standalone="no"?>
<!DOCTYPE svg PUBLIC "-//W3C//DTD SVG 20010904//EN"
 "http://www.w3.org/TR/2001/REC-SVG-20010904/DTD/svg10.dtd">
<svg version="1.0" xmlns="http://www.w3.org/2000/svg"
 width="56.000000pt" height="40.000000pt" viewBox="0 0 316.000000 216.000000"
 preserveAspectRatio="xMidYMid meet">

<g transform="translate(0.000000,216.000000) scale(0.100000,-0.100000)"
fill="#000000" stroke="none">
<path d="M283 2052 c-104 -55 -182 -273 -171 -477 5 -100 22 -131 98 -179 97
-62 90 -16 70 -476 -35 -772 -35 -732 -16 -768 18 -35 43 -52 78 -52 32 1 55
21 73 65 17 39 17 53 -25 914 -6 112 -10 216 -10 232 0 24 11 36 72 76 102 68
113 90 112 228 -1 169 -42 306 -114 388 -58 67 -107 81 -167 49z"/>
<path d="M1480 2054 c-91 -24 -197 -83 -259 -145 -58 -58 -114 -149 -126 -206
-6 -29 -11 -33 -53 -39 -199 -28 -362 -138 -434 -291 -83 -176 -51 -350 92
-493 36 -36 91 -79 122 -95 l58 -30 0 -329 0 -329 53 7 c282 37 401 47 622 53
302 7 483 -5 803 -53 l42 -7 0 329 0 329 51 24 c83 40 183 140 226 229 37 73
38 80 38 182 0 102 -1 109 -37 182 -66 132 -219 249 -365 278 -120 24 -113 20
-137 85 -55 152 -185 265 -364 316 -81 23 -249 25 -332 3z m293 -79 c229 -48
385 -271 348 -496 -15 -90 -47 -161 -106 -233 -45 -56 -46 -58 -15 -40 89 52
168 179 191 305 11 64 14 69 38 69 85 -1 218 -62 292 -135 156 -151 156 -359
1 -512 -64 -63 -196 -133 -215 -114 -8 8 -12 48 -12 109 0 87 4 105 33 171
l32 75 -43 -41 c-57 -56 -127 -98 -206 -125 -84 -29 -242 -31 -341 -5 -144 38
-279 128 -342 227 l-28 44 7 -49 c14 -88 9 -237 -9 -270 -42 -79 -74 -81 -212
-17 -154 72 -226 165 -247 319 -6 43 -12 79 -14 81 -1 2 -8 -27 -15 -64 -18
-94 -7 -170 40 -280 42 -98 48 -139 27 -168 -12 -16 -18 -14 -93 23 -89 45
-165 116 -205 192 -21 38 -24 58 -24 149 0 91 3 112 25 155 60 123 222 215
422 240 l53 7 22 72 c39 126 115 221 221 275 96 49 246 63 375 36z m352 -1220
c206 -24 195 -21 195 -66 0 -46 36 -42 -340 -43 -237 -1 -271 -3 -324 -21
l-58 -20 133 3 c87 3 175 -2 249 -12 63 -9 166 -19 228 -23 l112 -6 0 -118 0
-118 -37 -7 c-50 -10 -271 -10 -303 0 -21 6 -22 5 -7 -4 32 -21 152 -40 250
-40 l97 0 0 -40 c0 -48 7 -47 -163 -23 -183 26 -820 24 -1035 -3 -84 -11 -155
-18 -157 -15 -3 2 -5 38 -5 79 0 72 1 76 35 107 121 115 314 135 855 90 47 -4
41 -1 -45 20 -280 70 -394 88 -550 89 -130 0 -158 -3 -212 -22 -34 -12 -67
-22 -73 -22 -12 0 -14 176 -1 184 12 8 246 36 381 46 167 12 622 4 775 -15z"/>
<path d="M2787 2044 c-4 -4 -7 -148 -7 -320 l0 -312 29 -24 c15 -12 35 -27 44
-33 14 -9 14 -44 2 -370 -29 -762 -30 -781 -11 -809 9 -14 28 -33 42 -42 24
-16 26 -16 51 7 50 46 50 56 37 419 -24 631 -29 782 -24 789 3 4 20 16 38 27
18 10 35 28 38 39 2 11 3 157 2 325 -3 263 -5 305 -18 305 -13 0 -15 -39 -18
-278 -2 -216 -5 -278 -15 -274 -9 3 -13 73 -17 278 -4 235 -7 274 -20 274 -13
0 -16 -39 -20 -273 -3 -171 -9 -272 -15 -272 -6 0 -12 101 -15 272 -4 234 -7
273 -20 273 -13 0 -16 -39 -20 -273 -7 -363 -23 -364 -30 0 -5 257 -9 295 -33
272z"/>
</g>
</svg>
