<svg version="1.0" xmlns="http://www.w3.org/2000/svg" width="74.667" height="53.333" viewBox="0 0 316 216"><path d="M28.3 10.8c-10.4 5.5-18.2 27.3-17.1 47.7.5 10 2.2 13.1 9.8 17.9 9.7 6.2 9 1.6 7 47.6-3.5 77.2-3.5 73.2-1.6 76.8 1.8 3.5 4.3 5.2 7.8 5.2 3.2-.1 5.5-2.1 7.3-6.5 1.7-3.9 1.7-5.3-2.5-91.4-.6-11.2-1-21.6-1-23.2 0-2.4 1.1-3.6 7.2-7.6 10.2-6.8 11.3-9 11.2-22.8-.1-16.9-4.2-30.6-11.4-38.8-5.8-6.7-10.7-8.1-16.7-4.9zM148 10.6c-9.1 2.4-19.7 8.3-25.9 14.5-5.8 5.8-11.4 14.9-12.6 20.6-.6 2.9-1.1 3.3-5.3 3.9C84.3 52.4 68 63.4 60.8 78.7c-8.3 17.6-5.1 35 9.2 49.3 3.6 3.6 9.1 7.9 12.2 9.5l5.8 3v65.8l5.3-.7c28.2-3.7 40.1-4.7 62.2-5.3 30.2-.7 48.3.5 80.3 5.3l4.2.7v-65.8l5.1-2.4c8.3-4 18.3-14 22.6-22.9 3.7-7.3 3.8-8 3.8-18.2s-.1-10.9-3.7-18.2c-6.6-13.2-21.9-24.9-36.5-27.8-12-2.4-11.3-2-13.7-8.5-5.5-15.2-18.5-26.5-36.4-31.6-8.1-2.3-24.9-2.5-33.2-.3zm29.3 7.9c22.9 4.8 38.5 27.1 34.8 49.6-1.5 9-4.7 16.1-10.6 23.3-4.5 5.6-4.6 5.8-1.5 4 8.9-5.2 16.8-17.9 19.1-30.5 1.1-6.4 1.4-6.9 3.8-6.9 8.5.1 21.8 6.2 29.2 13.5 15.6 15.1 15.6 35.9.1 51.2-6.4 6.3-19.6 13.3-21.5 11.4-.8-.8-1.2-4.8-1.2-10.9 0-8.7.4-10.5 3.3-17.1l3.2-7.5-4.3 4.1c-5.7 5.6-12.7 9.8-20.6 12.5-8.4 2.9-24.2 3.1-34.1.5-14.4-3.8-27.9-12.8-34.2-22.7l-2.8-4.4.7 4.9c1.4 8.8.9 23.7-.9 27-4.2 7.9-7.4 8.1-21.2 1.7-15.4-7.2-22.6-16.5-24.7-31.9-.6-4.3-1.2-7.9-1.4-8.1-.1-.2-.8 2.7-1.5 6.4-1.8 9.4-.7 17 4 28 4.2 9.8 4.8 13.9 2.7 16.8-1.2 1.6-1.8 1.4-9.3-2.3-8.9-4.5-16.5-11.6-20.5-19.2-2.1-3.8-2.4-5.8-2.4-14.9 0-9.1.3-11.2 2.5-15.5 6-12.3 22.2-21.5 42.2-24l5.3-.7 2.2-7.2c3.9-12.6 11.5-22.1 22.1-27.5 9.6-4.9 24.6-6.3 37.5-3.6zm35.2 122c20.6 2.4 19.5 2.1 19.5 6.6 0 4.6 3.6 4.2-34 4.3-23.7.1-27.1.3-32.4 2.1l-5.8 2 13.3-.3c8.7-.3 17.5.2 24.9 1.2 6.3.9 16.6 1.9 22.8 2.3l11.2.6v23.6l-3.7.7c-5 1-27.1 1-30.3 0-2.1-.6-2.2-.5-.7.4 3.2 2.1 15.2 4 25 4h9.7v4c0 4.8.7 4.7-16.3 2.3-18.3-2.6-82-2.4-103.5.3-8.4 1.1-15.5 1.8-15.7 1.5-.3-.2-.5-3.8-.5-7.9 0-7.2.1-7.6 3.5-10.7 12.1-11.5 31.4-13.5 85.5-9 4.7.4 4.1.1-4.5-2-28-7-39.4-8.8-55-8.9-13 0-15.8.3-21.2 2.2-3.4 1.2-6.7 2.2-7.3 2.2-1.2 0-1.4-17.6-.1-18.4 1.2-.8 24.6-3.6 38.1-4.6 16.7-1.2 62.2-.4 77.5 1.5zM278.7 11.6c-.4.4-.7 14.8-.7 32v31.2l2.9 2.4c1.5 1.2 3.5 2.7 4.4 3.3 1.4.9 1.4 4.4.2 37-2.9 76.2-3 78.1-1.1 80.9.9 1.4 2.8 3.3 4.2 4.2 2.4 1.6 2.6 1.6 5.1-.7 5-4.6 5-5.6 3.7-41.9-2.4-63.1-2.9-78.2-2.4-78.9.3-.4 2-1.6 3.8-2.7 1.8-1 3.5-2.8 3.8-3.9.2-1.1.3-15.7.2-32.5-.3-26.3-.5-30.5-1.8-30.5s-1.5 3.9-1.8 27.8c-.2 21.6-.5 27.8-1.5 27.4-.9-.3-1.3-7.3-1.7-27.8-.4-23.5-.7-27.4-2-27.4s-1.6 3.9-2 27.3c-.3 17.1-.9 27.2-1.5 27.2s-1.2-10.1-1.5-27.2c-.4-23.4-.7-27.3-2-27.3s-1.6 3.9-2 27.3c-.7 36.3-2.3 36.4-3 0-.5-25.7-.9-29.5-3.3-27.2z"/></svg>